<?xml version="1.0" encoding="UTF-8"?>
<!DOCTYPE svg PUBLIC "-//W3C//DTD SVG 1.1//EN" "http://www.w3.org/Graphics/SVG/1.1/DTD/svg11.dtd">
<svg xmlns="http://www.w3.org/2000/svg" version="1.1" width="1080px" height="1080px" style="shape-rendering:geometricPrecision; text-rendering:geometricPrecision; image-rendering:optimizeQuality; fill-rule:evenodd; clip-rule:evenodd" xmlns:xlink="http://www.w3.org/1999/xlink">
<g><path style="opacity:0.361" fill="#969696" d="M 591.5,100.5 C 589.708,100.366 588.042,100.699 586.5,101.5C 588.042,100.699 589.708,100.366 591.5,100.5 Z"/></g>
<g><path style="opacity:0.995" fill="#0c0c0c" d="M 591.5,100.5 C 604.281,101.489 616.615,104.322 628.5,109C 637.924,115.608 640.757,124.442 637,135.5C 634.78,141.223 630.946,145.556 625.5,148.5C 640.081,157.931 642.914,170.264 634,185.5C 626.079,193.36 616.579,196.194 605.5,194C 595.46,192.271 585.46,190.438 575.5,188.5C 574.791,187.596 573.791,187.263 572.5,187.5C 572.5,186.167 572.5,184.833 572.5,183.5C 576.95,156.131 581.617,128.798 586.5,101.5C 588.042,100.699 589.708,100.366 591.5,100.5 Z M 604.5,119.5 C 608.761,119.545 612.595,120.878 616,123.5C 619.38,132.076 616.547,137.076 607.5,138.5C 605.465,137.959 603.465,137.292 601.5,136.5C 602.823,130.894 603.823,125.227 604.5,119.5 Z M 598.5,155.5 C 605.369,155.398 611.202,157.731 616,162.5C 618.049,167.802 616.883,172.302 612.5,176C 606.431,176.804 600.431,176.471 594.5,175C 596.022,168.559 597.355,162.059 598.5,155.5 Z"/></g>
<g><path style="opacity:0.993" fill="#111111" d="M 457.5,137.5 C 461.215,137.423 464.881,137.756 468.5,138.5C 467.757,144.546 466.757,150.546 465.5,156.5C 459.163,155.2 453.33,156.533 448,160.5C 446.48,164.375 446.146,168.375 447,172.5C 449.012,180.882 451.179,189.215 453.5,197.5C 447.487,199.88 441.32,201.88 435,203.5C 429.783,185.465 424.949,167.298 420.5,149C 427.039,146.865 433.706,145.365 440.5,144.5C 440.372,146.655 440.872,148.655 442,150.5C 445.266,143.721 450.433,139.388 457.5,137.5 Z"/></g>
<g><path style="opacity:0.993" fill="#0d0d0d" d="M 665.5,152.5 C 677.615,151.975 687.115,156.641 694,166.5C 694.583,164.998 695.416,163.665 696.5,162.5C 702.459,165.098 708.459,167.598 714.5,170C 707.946,185.659 701.779,201.492 696,217.5C 695.477,219.223 694.477,220.556 693,221.5C 687.667,219.916 682.5,217.916 677.5,215.5C 676.949,213.587 676.782,211.587 677,209.5C 661.792,214.209 650.459,209.543 643,195.5C 637.363,174.102 644.863,159.768 665.5,152.5 Z M 671.5,171.5 C 684.705,172.511 689.205,179.177 685,191.5C 679.255,198.228 672.755,199.061 665.5,194C 660.343,188.038 660.176,181.872 665,175.5C 667.013,173.752 669.18,172.418 671.5,171.5 Z"/></g>
<g><path style="opacity:0.993" fill="#0d0d0d" d="M 417.5,191.5 C 419.844,191.94 421.844,192.94 423.5,194.5C 419.508,207.984 410.508,216.151 396.5,219C 371.814,219.98 360.314,208.147 362,183.5C 368.39,165.378 381.223,157.545 400.5,160C 410.274,163.274 416.941,169.774 420.5,179.5C 408.903,185.654 396.903,191.154 384.5,196C 384.167,196.333 383.833,196.667 383.5,197C 389.419,203.571 396.085,204.237 403.5,199C 405.594,196.579 407.26,193.912 408.5,191C 411.507,190.699 414.507,190.865 417.5,191.5 Z"/></g>
<g><path style="opacity:0.992" fill="#121212" d="M 518.5,164.5 C 532.917,164.4 537.75,171.067 533,184.5C 528.86,189.211 523.694,190.711 517.5,189C 510.681,184.887 508.514,179.054 511,171.5C 512.742,168.254 515.242,165.921 518.5,164.5 Z"/></g>
<g><path style="opacity:1" fill="#efefef" d="M 387.5,172.5 C 392.311,171.74 395.978,173.407 398.5,177.5C 392.212,181.151 385.545,183.817 378.5,185.5C 378.777,179.231 381.777,174.898 387.5,172.5 Z"/></g>
<g><path style="opacity:0.993" fill="#0d0d0d" d="M 782.5,233.5 C 781.711,233.783 781.044,234.283 780.5,235C 782.066,235.765 783.399,235.598 784.5,234.5C 792.484,233.486 800.484,232.986 808.5,233C 814.967,237.635 820.967,242.802 826.5,248.5C 815.902,250.221 805.235,251.221 794.5,251.5C 792.833,251.5 791.167,251.5 789.5,251.5C 789.216,253.415 789.549,255.081 790.5,256.5C 791.588,265.799 792.254,275.133 792.5,284.5C 792.802,287.059 792.468,289.393 791.5,291.5C 785.686,286.853 780.019,282.02 774.5,277C 773.263,269.223 772.596,261.39 772.5,253.5C 772.808,251.076 772.474,248.743 771.5,246.5C 770.893,246.624 770.56,246.957 770.5,247.5C 766.211,252.961 761.711,258.294 757,263.5C 751.992,259.323 747.159,254.99 742.5,250.5C 762.273,226.608 782.273,202.941 802.5,179.5C 807.683,183.26 812.683,187.26 817.5,191.5C 805.81,205.519 794.144,219.519 782.5,233.5 Z"/></g>
<g><path style="opacity:0.608" fill="#757575" d="M 572.5,183.5 C 572.5,184.833 572.5,186.167 572.5,187.5C 573.791,187.263 574.791,187.596 575.5,188.5C 574.167,188.5 572.833,188.5 571.5,188.5C 571.216,186.585 571.549,184.919 572.5,183.5 Z"/></g>
<g><path style="opacity:0.992" fill="#0e0e0e" d="M 734.5,185.5 C 748.684,185.754 759.351,191.92 766.5,204C 762.706,207.069 758.706,209.902 754.5,212.5C 747.129,202.591 738.962,201.591 730,209.5C 726.124,216.323 726.957,222.49 732.5,228C 736.118,229.653 739.785,231.153 743.5,232.5C 742.726,236.779 742.226,241.113 742,245.5C 726.363,246.163 715.363,239.163 709,224.5C 704.554,202.815 713.054,189.815 734.5,185.5 Z"/></g>
<g><path style="opacity:0.993" fill="#0d0d0d" d="M 328.5,189.5 C 350.198,188.524 362.532,198.858 365.5,220.5C 362.813,238.196 352.479,247.696 334.5,249C 340.5,257.667 346.5,266.333 352.5,275C 347.262,279.203 341.762,283.036 336,286.5C 320.5,263 305,239.5 289.5,216C 294.662,212.251 299.996,208.751 305.5,205.5C 306.48,206.981 307.647,208.315 309,209.5C 311.806,199.19 318.306,192.523 328.5,189.5 Z M 330.5,208.5 C 342.724,210.95 346.558,217.95 342,229.5C 336.371,235.281 330.204,235.947 323.5,231.5C 315.953,220.81 318.286,213.143 330.5,208.5 Z"/></g>
<g><path style="opacity:0.569" fill="#5d5d5d" d="M 417.5,191.5 C 419.833,191.5 422.167,191.5 424.5,191.5C 424.737,192.791 424.404,193.791 423.5,194.5C 421.844,192.94 419.844,191.94 417.5,191.5 Z"/></g>
<g><path style="opacity:0.506" fill="#757575" d="M 782.5,233.5 C 782.842,234.338 783.508,234.672 784.5,234.5C 783.399,235.598 782.066,235.765 780.5,235C 781.044,234.283 781.711,233.783 782.5,233.5 Z"/></g>
<g><path style="opacity:0.994" fill="#0c0c0c" d="M 275.5,235.5 C 294.306,235.887 304.639,245.387 306.5,264C 303.758,285.243 291.758,297.409 270.5,300.5C 248.4,296.56 239.567,283.56 244,261.5C 249.908,247.077 260.408,238.411 275.5,235.5 Z M 269.5,255.5 C 282.992,254.484 288.492,260.484 286,273.5C 280.932,280.868 274.432,282.368 266.5,278C 259.186,269.384 260.186,261.884 269.5,255.5 Z"/></g>
<g><path style="opacity:0.063" fill="#9c9c9c" d="M 770.5,247.5 C 770.56,246.957 770.893,246.624 771.5,246.5C 772.474,248.743 772.808,251.076 772.5,253.5C 771.833,251.5 771.167,249.5 770.5,247.5 Z"/></g>
<g><path style="opacity:0.298" fill="#909090" d="M 794.5,251.5 C 793.432,252.434 792.099,252.768 790.5,252.5C 790.5,253.833 790.5,255.167 790.5,256.5C 789.549,255.081 789.216,253.415 789.5,251.5C 791.167,251.5 792.833,251.5 794.5,251.5 Z"/></g>
<g><path style="opacity:0.992" fill="#0e0e0e" d="M 193.5,258.5 C 218.89,277.044 243.89,296.21 268.5,316C 264.453,321.258 260.287,326.425 256,331.5C 231.667,312.5 207.333,293.5 183,274.5C 182.333,273.833 182.333,273.167 183,272.5C 187.102,268.239 190.602,263.572 193.5,258.5 Z"/></g>
<g><path style="opacity:0.992" fill="#0d0d0d" d="M 880.5,261.5 C 882.39,261.297 883.89,261.963 885,263.5C 894.167,276.5 903.333,289.5 912.5,302.5C 907.809,306.359 902.975,310.025 898,313.5C 891.755,305.343 885.755,297.01 880,288.5C 875.359,291.641 870.859,294.974 866.5,298.5C 871.472,305.972 876.639,313.305 882,320.5C 882.667,321.5 882.667,322.5 882,323.5C 877.636,326.696 873.136,329.696 868.5,332.5C 862.506,324.999 856.673,317.333 851,309.5C 846.335,312.672 841.835,316.005 837.5,319.5C 842.919,328.007 848.586,336.34 854.5,344.5C 850.069,348.434 845.236,351.767 840,354.5C 829.473,340.967 819.306,327.133 809.5,313C 833.348,295.97 857.015,278.803 880.5,261.5 Z"/></g>
<g><path style="opacity:0.671" fill="#6a6a6a" d="M 792.5,284.5 C 793.8,287.024 793.8,289.691 792.5,292.5C 791.893,292.376 791.56,292.043 791.5,291.5C 792.468,289.393 792.802,287.059 792.5,284.5 Z"/></g>
<g><path style="opacity:0.992" fill="#0e0e0e" d="M 206.5,315.5 C 215.623,314.443 223.623,316.776 230.5,322.5C 223.959,333.749 217.293,344.916 210.5,356C 214.996,359.189 219.329,358.856 223.5,355C 228.054,349.559 229.554,343.392 228,336.5C 232.172,334.081 236.172,331.415 240,328.5C 244.01,334.229 245.344,340.562 244,347.5C 237.351,372.405 221.851,380.905 197.5,373C 183.786,362.846 179.952,349.679 186,333.5C 190.256,324.402 197.089,318.402 206.5,315.5 Z M 203.5,332.5 C 206.187,332.336 208.854,332.503 211.5,333C 207.623,338.585 204.123,344.418 201,350.5C 195.903,343.682 196.736,337.682 203.5,332.5 Z"/></g>
<g><path style="opacity:0.992" fill="#0e0e0e" d="M 891.5,336.5 C 892.675,336.281 893.675,336.614 894.5,337.5C 897.039,342.745 899.706,347.912 902.5,353C 900.999,354.252 899.332,355.252 897.5,356C 912.413,363.791 916.913,375.624 911,391.5C 909.167,393.333 907.333,395.167 905.5,397C 893.622,403.106 881.622,408.939 869.5,414.5C 866.643,408.62 863.643,402.786 860.5,397C 871.198,391.651 881.864,386.318 892.5,381C 897.832,369.65 894.165,363.983 881.5,364C 871.833,368.5 862.167,373 852.5,377.5C 848.874,372.419 845.874,366.919 843.5,361C 859.377,352.562 875.377,344.395 891.5,336.5 Z"/></g>
<g><path style="opacity:0.994" fill="#0f0f0f" d="M 170.5,362.5 C 184.838,377.34 198.671,392.673 212,408.5C 211.979,413.074 210.812,417.408 208.5,421.5C 188.811,425.194 168.977,428.194 149,430.5C 147.833,430.167 146.667,429.833 145.5,429.5C 148.167,422.833 150.833,416.167 153.5,409.5C 164.3,408.58 174.967,407.413 185.5,406C 177.53,399.031 169.864,391.698 162.5,384C 165.464,376.942 168.13,369.776 170.5,362.5 Z"/></g>
<g><path style="opacity:0.995" fill="#0e0e0e" d="M 901.5,407.5 C 927.093,408.422 937.426,421.422 932.5,446.5C 945.608,443.64 958.608,440.306 971.5,436.5C 972.086,436.709 972.586,437.043 973,437.5C 974.345,443.216 975.845,448.882 977.5,454.5C 977.291,455.086 976.957,455.586 976.5,456C 946.784,463.679 917.118,471.512 887.5,479.5C 885.373,473.996 883.706,468.33 882.5,462.5C 882.608,461.558 882.941,460.725 883.5,460C 884.833,459.667 886.167,459.333 887.5,459C 874.346,448.901 871.512,436.401 879,421.5C 884.72,413.894 892.22,409.227 901.5,407.5 Z M 903.5,428.5 C 914.623,428.79 919.456,434.457 918,445.5C 914.345,452.738 908.512,455.238 900.5,453C 893.574,448.422 891.741,442.255 895,434.5C 897.322,431.605 900.155,429.605 903.5,428.5 Z"/></g>
<g><path style="opacity:0.993" fill="#0f0f0f" d="M 158.5,439.5 C 163.88,439.324 169.213,439.658 174.5,440.5C 172.74,453.796 170.407,466.963 167.5,480C 176.372,480.462 180.705,476.129 180.5,467C 180.022,462.624 179.189,458.457 178,454.5C 180.675,450.995 183.509,447.661 186.5,444.5C 190.641,447.143 193.475,450.81 195,455.5C 199.306,471.122 195.472,484.288 183.5,495C 171.305,502.54 159.305,502.207 147.5,494C 132.608,476.694 133.275,460.027 149.5,444C 152.437,442.199 155.437,440.699 158.5,439.5 Z M 158.5,457.5 C 159.497,457.47 160.164,457.97 160.5,459C 159.078,464.779 157.911,470.612 157,476.5C 154.135,477.041 152.135,475.707 151,472.5C 149.328,465.175 151.828,460.175 158.5,457.5 Z"/></g>
<g><path style="opacity:0.996" fill="#060606" d="M 187.5,542.5 C 187.5,553.167 187.5,563.833 187.5,574.5C 181.974,574.179 176.64,574.512 171.5,575.5C 162.5,575.5 153.5,575.5 144.5,575.5C 129.5,575.5 114.5,575.5 99.5,575.5C 99.5,564.833 99.5,554.167 99.5,543.5C 102.271,524.883 112.605,512.383 130.5,506C 155.337,500.705 173.504,509.205 185,531.5C 186.562,535.014 187.395,538.681 187.5,542.5 Z M 169.5,547.5 C 169.5,549.833 169.5,552.167 169.5,554.5C 156.989,554.171 144.655,554.505 132.5,555.5C 127.5,555.5 122.5,555.5 117.5,555.5C 116.6,541.247 122.933,532.081 136.5,528C 153.467,524.805 164.467,531.305 169.5,547.5 Z"/></g>
<g><path style="opacity:0.996" fill="#0b0b0b" d="M 891.5,512.5 C 921.149,513.503 950.816,514.337 980.5,515C 981.139,517.411 981.473,519.911 981.5,522.5C 980.913,531.161 980.413,539.828 980,548.5C 973.097,575.061 955.93,587.228 928.5,585C 902.423,578.375 889.757,561.542 890.5,534.5C 890.834,527.163 891.167,519.83 891.5,512.5 Z M 936.5,534.5 C 944.65,535.493 952.983,535.826 961.5,535.5C 961.5,537.5 961.5,539.5 961.5,541.5C 957.033,558.417 946.033,565.251 928.5,562C 915.12,557.751 908.787,548.584 909.5,534.5C 918.5,534.5 927.5,534.5 936.5,534.5 Z"/></g>
<g><path style="opacity:0.439" fill="#858585" d="M 936.5,534.5 C 945.167,534.5 953.833,534.5 962.5,534.5C 962.802,537.059 962.468,539.393 961.5,541.5C 961.5,539.5 961.5,537.5 961.5,535.5C 952.983,535.826 944.65,535.493 936.5,534.5 Z"/></g>
<g><path style="opacity:0.275" fill="#a0a0a0" d="M 169.5,547.5 C 170.473,549.948 170.806,552.615 170.5,555.5C 157.833,555.5 145.167,555.5 132.5,555.5C 144.655,554.505 156.989,554.171 169.5,554.5C 169.5,552.167 169.5,549.833 169.5,547.5 Z"/></g>
<g><path style="opacity:0.694" fill="#2f2f2f" d="M 187.5,542.5 C 188.495,553.321 188.828,564.321 188.5,575.5C 182.833,575.5 177.167,575.5 171.5,575.5C 176.64,574.512 181.974,574.179 187.5,574.5C 187.5,563.833 187.5,553.167 187.5,542.5 Z"/></g>
<g><path style="opacity:0.329" fill="#979797" d="M 99.5,543.5 C 99.5,554.167 99.5,564.833 99.5,575.5C 114.5,575.5 129.5,575.5 144.5,575.5C 129.342,576.496 114.009,576.83 98.5,576.5C 98.1721,565.321 98.5054,554.321 99.5,543.5 Z"/></g>
<g><path style="opacity:0.993" fill="#0f0f0f" d="M 904.5,588.5 C 922.489,587.24 933.989,595.24 939,612.5C 941.585,630.18 934.752,642.347 918.5,649C 912.343,649.965 906.343,649.465 900.5,647.5C 903.313,634.597 906.313,621.764 909.5,609C 900.786,608.707 896.119,613.041 895.5,622C 895.664,625.83 896.997,629.163 899.5,632C 896.287,636.258 892.953,640.425 889.5,644.5C 884.275,640.056 881.108,634.389 880,627.5C 878.112,607.902 886.279,594.902 904.5,588.5 Z M 919.5,612.5 C 923.908,613.247 926.241,615.913 926.5,620.5C 926.159,627.678 922.492,631.178 915.5,631C 917.404,624.98 918.738,618.814 919.5,612.5 Z"/></g>
<g><path style="opacity:0.993" fill="#0f0f0f" d="M 140.5,622.5 C 140.5,621.167 141.167,620.5 142.5,620.5C 152.386,625.694 162.219,631.027 172,636.5C 178.159,624.178 184.826,612.178 192,600.5C 194.324,608.128 196.49,615.795 198.5,623.5C 194.72,632.393 190.387,641.06 185.5,649.5C 186.167,649.833 186.833,650.167 187.5,650.5C 193.218,648.987 198.884,647.321 204.5,645.5C 206.805,651.382 208.805,657.382 210.5,663.5C 181.068,673.087 151.401,682.087 121.5,690.5C 119.215,685.715 117.382,680.715 116,675.5C 115.28,673.888 115.446,672.388 116.5,671C 133.892,666.203 151.225,661.203 168.5,656C 161.329,651.58 153.996,647.414 146.5,643.5C 143.723,636.725 141.723,629.725 140.5,622.5 Z"/></g>
<g><path style="opacity:0.576" fill="#777777" d="M 142.5,620.5 C 141.167,620.5 140.5,621.167 140.5,622.5C 137.53,618.316 138.197,617.65 142.5,620.5 Z"/></g>
<g><path style="opacity:0.994" fill="#0c0c0c" d="M 912.5,680.5 C 904.472,680.169 896.472,680.502 888.5,681.5C 888.624,682.107 888.957,682.44 889.5,682.5C 896.967,690.136 904.3,697.969 911.5,706C 908.33,712.851 905.163,719.684 902,726.5C 888.5,710.333 875,694.167 861.5,678C 863.26,674.225 864.927,670.392 866.5,666.5C 867.333,666.167 868.167,665.833 869,665.5C 889.071,663.36 909.071,661.027 929,658.5C 929.667,659.833 929.667,661.167 929,662.5C 926.39,668.053 924.057,673.719 922,679.5C 918.943,680.451 915.777,680.784 912.5,680.5 Z"/></g>
<g><path style="opacity:0.993" fill="#101010" d="M 207.5,668.5 C 215.461,672.353 220.628,678.686 223,687.5C 227.101,709.989 217.934,722.989 195.5,726.5C 173.881,723.552 163.548,711.219 164.5,689.5C 169.463,688.741 174.463,688.741 179.5,689.5C 180.615,704.547 187.948,709.047 201.5,703C 208.472,694.628 207.805,686.795 199.5,679.5C 202.191,675.815 204.858,672.148 207.5,668.5 Z"/></g>
<g><path style="opacity:0.463" fill="#6f6f6f" d="M 912.5,680.5 C 904.833,681.167 897.167,681.833 889.5,682.5C 888.957,682.44 888.624,682.107 888.5,681.5C 896.472,680.502 904.472,680.169 912.5,680.5 Z"/></g>
<g><path style="opacity:0.992" fill="#0f0f0f" d="M 858.5,710.5 C 883.251,713.419 893.084,727.086 888,751.5C 877.294,773.073 861.794,777.573 841.5,765C 848.625,753.918 855.625,742.751 862.5,731.5C 853.821,728.424 847.988,731.424 845,740.5C 844.825,743.95 844.658,747.283 844.5,750.5C 840.418,753.291 836.251,755.958 832,758.5C 825.394,740.646 829.894,726.146 845.5,715C 849.846,713.164 854.179,711.664 858.5,710.5 Z M 871.5,737.5 C 875.758,741.028 876.591,745.361 874,750.5C 870.969,755.319 866.802,756.652 861.5,754.5C 865.109,748.943 868.442,743.276 871.5,737.5 Z"/></g>
<g><path style="opacity:0.993" fill="#0c0c0c" d="M 241.5,733.5 C 240.957,733.56 240.624,733.893 240.5,734.5C 241.325,735.386 242.325,735.719 243.5,735.5C 259.085,741.666 264.918,753 261,769.5C 252.134,787.85 237.967,794.017 218.5,788C 210.92,783.588 206.254,777.088 204.5,768.5C 204.813,765.753 204.48,763.086 203.5,760.5C 202.893,760.624 202.56,760.957 202.5,761.5C 201.542,761.953 200.708,762.619 200,763.5C 195.973,758.306 192.14,752.973 188.5,747.5C 203.557,736.444 218.891,725.777 234.5,715.5C 238.044,720.755 241.71,725.921 245.5,731C 244.307,732.095 242.973,732.928 241.5,733.5 Z M 226.5,744.5 C 239.538,744.694 244.371,751.028 241,763.5C 233.965,772.269 226.632,772.602 219,764.5C 215.101,755.558 217.601,748.892 226.5,744.5 Z"/></g>
<g><path style="opacity:0.416" fill="#949494" d="M 241.5,733.5 C 242.167,734.167 242.833,734.833 243.5,735.5C 242.325,735.719 241.325,735.386 240.5,734.5C 240.624,733.893 240.957,733.56 241.5,733.5 Z"/></g>
<g><path style="opacity:0.991" fill="#0d0d0d" d="M 815.5,755.5 C 840.23,774.719 864.564,794.552 888.5,815C 884.5,819.667 880.5,824.333 876.5,829C 874.369,828.602 872.369,827.602 870.5,826C 848.352,807.095 826.018,788.429 803.5,770C 807.712,765.293 811.712,760.46 815.5,755.5 Z"/></g>
<g><path style="opacity:0.506" fill="#7a7a7a" d="M 202.5,761.5 C 202.56,760.957 202.893,760.624 203.5,760.5C 204.48,763.086 204.813,765.753 204.5,768.5C 203.833,766.167 203.167,763.833 202.5,761.5 Z"/></g>
<g><path style="opacity:0.992" fill="#0f0f0f" d="M 263.5,782.5 C 263.167,781.833 262.833,781.167 262.5,780.5C 264.418,775.657 267.084,771.323 270.5,767.5C 280.571,770.739 286.571,777.572 288.5,788C 288.025,791.737 286.858,795.237 285,798.5C 278.721,804.779 272.387,811.113 266,817.5C 266.546,820.093 268.046,822.26 270.5,824C 266.985,827.682 263.318,831.182 259.5,834.5C 257.684,833.185 256.017,831.685 254.5,830C 253.833,829.333 253.167,829.333 252.5,830C 248,834.5 243.5,839 239,843.5C 234.133,838.968 229.633,834.134 225.5,829C 230.349,824.319 235.015,819.485 239.5,814.5C 237.517,812.016 235.35,809.683 233,807.5C 235.146,803.008 238.479,799.341 243,796.5C 245.784,798.28 248.284,800.447 250.5,803C 251.167,803.667 251.833,803.667 252.5,803C 258.054,797.949 263.054,792.449 267.5,786.5C 266.479,784.812 265.145,783.479 263.5,782.5 Z"/></g>
<g><path style="opacity:0.047" fill="#bbbbbb" d="M 262.5,780.5 C 262.833,781.167 263.167,781.833 263.5,782.5C 261.576,782.289 261.243,781.623 262.5,780.5 Z"/></g>
<g><path style="opacity:0.995" fill="#0e0e0e" d="M 795.5,785.5 C 812.183,784.923 823.017,792.59 828,808.5C 828.703,829.137 819.203,842.637 799.5,849C 776.851,851.276 765.018,841.109 764,818.5C 765.787,806.437 771.954,797.27 782.5,791C 786.741,788.651 791.075,786.818 795.5,785.5 Z M 791.5,805.5 C 803.985,804.484 809.485,810.151 808,822.5C 803.405,830.811 796.905,832.645 788.5,828C 781.232,819.374 782.232,811.874 791.5,805.5 Z"/></g>
<g><path style="opacity:0.993" fill="#0c0c0c" d="M 760.5,875.5 C 759.377,874.243 758.711,874.576 758.5,876.5C 755.583,885.913 749.249,891.746 739.5,894C 718.266,894.944 706.266,884.777 703.5,863.5C 704.399,848.609 712.065,839.609 726.5,836.5C 729.572,836.817 732.572,836.484 735.5,835.5C 735.376,834.893 735.043,834.56 734.5,834.5C 729.178,825.861 723.844,817.195 718.5,808.5C 723.841,804.67 729.341,801.004 735,797.5C 749.458,821.585 764.291,845.419 779.5,869C 774,872.5 768.5,876 763,879.5C 761.905,878.307 761.072,876.973 760.5,875.5 Z M 733.5,849.5 C 742.673,848.833 748.339,853 750.5,862C 749.37,869.797 744.87,874.297 737,875.5C 725.81,872.123 722.477,865.123 727,854.5C 728.965,852.45 731.132,850.783 733.5,849.5 Z"/></g>
<g><path style="opacity:0.993" fill="#0d0d0d" d="M 299.5,806.5 C 323.624,808.774 339.291,821.607 346.5,845C 340.952,848.605 334.952,851.439 328.5,853.5C 325.769,844.887 321.102,837.387 314.5,831C 307.829,826.713 302.829,828.046 299.5,835C 303.189,844.214 307.023,853.381 311,862.5C 314.122,879.414 307.288,889.914 290.5,894C 280.164,894.999 271.164,891.999 263.5,885C 257.753,879.082 253.42,872.248 250.5,864.5C 255.92,861.373 261.42,858.373 267,855.5C 269.83,862.34 273.996,868.173 279.5,873C 287.722,876.748 291.555,874.248 291,865.5C 287.59,857.681 283.923,850.014 280,842.5C 275.155,824.531 281.655,812.531 299.5,806.5 Z"/></g>
<g><path style="opacity:0.439" fill="#898989" d="M 734.5,834.5 C 735.043,834.56 735.376,834.893 735.5,835.5C 732.572,836.484 729.572,836.817 726.5,836.5C 729.167,835.833 731.833,835.167 734.5,834.5 Z"/></g>
<g><path style="opacity:0.993" fill="#0f0f0f" d="M 380.5,852.5 C 387.07,854.452 393.07,857.452 398.5,861.5C 385.606,889.621 372.44,917.621 359,945.5C 352.963,942.898 347.13,939.898 341.5,936.5C 354.512,908.478 367.512,880.478 380.5,852.5 Z"/></g>
<g><path style="opacity:0.992" fill="#0f0f0f" d="M 670.5,862.5 C 691.749,860.943 704.083,870.61 707.5,891.5C 703.703,913.466 690.703,923.633 668.5,922C 657.737,919.071 650.737,912.238 647.5,901.5C 658.942,895.844 670.776,890.844 683,886.5C 684.345,884.557 683.845,882.724 681.5,881C 671.451,877.357 664.118,880.357 659.5,890C 654.109,890.346 648.776,889.846 643.5,888.5C 645.069,882.193 648.069,876.693 652.5,872C 658.15,868.01 664.15,864.843 670.5,862.5 Z M 687.5,896.5 C 689.43,902.137 687.43,905.97 681.5,908C 676.428,909.549 672.428,908.216 669.5,904C 675.641,901.572 681.641,899.072 687.5,896.5 Z"/></g>
<g><path style="opacity:0.993" fill="#0f0f0f" d="M 407.5,864.5 C 414.066,866.451 420.4,868.951 426.5,872C 415.871,900.097 405.371,928.264 395,956.5C 394.481,957.516 393.647,958.182 392.5,958.5C 386.563,956.745 380.896,954.412 375.5,951.5C 386.571,922.618 397.237,893.618 407.5,864.5 Z"/></g>
<g><path style="opacity:0.188" fill="#a7a7a7" d="M 760.5,875.5 C 759.833,875.833 759.167,876.167 758.5,876.5C 758.711,874.576 759.377,874.243 760.5,875.5 Z"/></g>
<g><path style="opacity:0.993" fill="#0f0f0f" d="M 599.5,941.5 C 598.89,940.609 598.557,939.609 598.5,938.5C 599.341,933.468 600.341,928.468 601.5,923.5C 608.637,925.308 614.804,923.641 620,918.5C 620.373,916.302 620.873,914.135 621.5,912C 619.289,901.937 616.955,891.937 614.5,882C 621.105,880.182 627.772,878.682 634.5,877.5C 637.972,895.026 641.639,912.526 645.5,930C 645.245,931.326 644.578,932.326 643.5,933C 637.853,934.329 632.187,935.496 626.5,936.5C 626.357,928.733 624.857,928.066 622,934.5C 615.922,941.395 608.422,943.728 599.5,941.5 Z"/></g>
<g><path style="opacity:0.994" fill="#0e0e0e" d="M 444.5,878.5 C 456.929,877.486 468.595,879.986 479.5,886C 485.281,890.396 488.281,896.229 488.5,903.5C 486.465,916.306 483.798,928.973 480.5,941.5C 474.23,941.732 468.063,940.732 462,938.5C 463.692,927.698 465.525,916.865 467.5,906C 466.554,897.082 461.554,893.748 452.5,896C 451.333,897.167 450.167,898.333 449,899.5C 445.54,910.672 442.707,922.006 440.5,933.5C 434.449,932.655 428.449,931.488 422.5,930C 423.557,917.046 426.057,904.213 430,891.5C 433.162,885.164 437.996,880.831 444.5,878.5 Z"/></g>
<g><path style="opacity:0.991" fill="#131313" d="M 570.5,886.5 C 583.579,887.408 588.079,894.075 584,906.5C 577.291,913.98 570.291,914.314 563,907.5C 558.214,897.761 560.714,890.761 570.5,886.5 Z"/></g>
<g><path style="opacity:0.997" fill="#0d0d0d" d="M 539.5,890.5 C 541.607,891.468 543.941,891.802 546.5,891.5C 546.5,895.833 546.5,900.167 546.5,904.5C 545.817,929.847 544.817,955.18 543.5,980.5C 530.156,979.992 516.823,979.325 503.5,978.5C 500.038,977.518 496.371,977.185 492.5,977.5C 492.5,971.833 492.5,966.167 492.5,960.5C 502.65,960.165 512.983,960.165 523.5,960.5C 523.595,954.789 523.595,949.289 523.5,944C 514.155,943.611 504.821,943.111 495.5,942.5C 495.192,936.575 495.525,930.741 496.5,925C 505.875,924.821 515.208,924.654 524.5,924.5C 525.546,912.882 526.212,901.215 526.5,889.5C 530.857,889.586 535.19,889.92 539.5,890.5 Z"/></g>
<g><path style="opacity:0.529" fill="#727272" d="M 539.5,890.5 C 542.167,890.5 544.833,890.5 547.5,890.5C 547.819,895.363 547.486,900.03 546.5,904.5C 546.5,900.167 546.5,895.833 546.5,891.5C 543.941,891.802 541.607,891.468 539.5,890.5 Z"/></g>
<g><path style="opacity:0.337" fill="#a0a0a0" d="M 598.5,938.5 C 598.557,939.609 598.89,940.609 599.5,941.5C 597.448,940.947 597.115,939.947 598.5,938.5 Z"/></g>
<g><path style="opacity:0.494" fill="#6a6a6a" d="M 492.5,960.5 C 492.5,966.167 492.5,971.833 492.5,977.5C 496.371,977.185 500.038,977.518 503.5,978.5C 499.5,978.5 495.5,978.5 491.5,978.5C 491.177,972.31 491.51,966.31 492.5,960.5 Z"/></g>
</svg>
